<svg width="940" height="420" viewBox="0 0 940 420" fill="none" xmlns="http://www.w3.org/2000/svg">
<g filter="url(#filter0_d_543_16)">
<rect x="6" y="6" width="920" height="400" rx="12" fill="#1C1D24"/>
<rect x="6.5" y="6.5" width="919" height="399" rx="11.5" stroke="#6D7D93" stroke-opacity="0.15"/>
</g>
<path d="M97 285.697L78 301.893V344.5H878V113.5L867 147.5C848 187.526 800 247.103 762 257.306C724 267.508 686 143.858 648 113.5C610 83.1416 572 82.0718 534 120.468C496 158.863 458 300.727 420 302.951C382 305.174 344 231.759 306 202.78C268 173.802 230 189.259 192 213.184C154 237.109 116 269.501 97 285.697Z" fill="url(#paint0_linear_543_16)" fill-opacity="0.1"/>
<path opacity="0.8" d="M80 301.893L98.9524 285.697C117.905 269.501 155.81 237.109 193.714 213.184C231.619 189.259 269.524 173.802 307.429 202.78C345.333 231.759 383.238 305.174 421.143 302.951C459.048 300.727 496.952 158.863 534.857 120.468C572.762 82.0718 610.667 83.1415 648.571 113.5C686.476 143.858 724.381 267.508 762.286 257.306C800.19 247.103 840.048 206.026 859 166L876 120.468" stroke="url(#paint1_linear_543_16)" stroke-width="3" stroke-linecap="round"/>
<path d="M98.612 372V370.884C99.124 370.46 99.62 370.04 100.1 369.624C100.588 369.208 101.02 368.796 101.396 368.388C101.78 367.98 102.084 367.584 102.308 367.2C102.54 366.808 102.656 366.428 102.656 366.06C102.656 365.716 102.56 365.412 102.368 365.148C102.184 364.884 101.876 364.752 101.444 364.752C101.004 364.752 100.672 364.896 100.448 365.184C100.224 365.472 100.112 365.82 100.112 366.228H98.624C98.64 365.612 98.776 365.1 99.032 364.692C99.288 364.276 99.628 363.968 100.052 363.768C100.476 363.56 100.952 363.456 101.48 363.456C102.336 363.456 103 363.692 103.472 364.164C103.952 364.628 104.192 365.232 104.192 365.976C104.192 366.44 104.084 366.892 103.868 367.332C103.66 367.772 103.384 368.196 103.04 368.604C102.696 369.012 102.324 369.396 101.924 369.756C101.524 370.108 101.136 370.436 100.76 370.74H104.396V372H98.612ZM109.057 372.144C108.281 372.144 107.617 371.964 107.065 371.604C106.513 371.236 106.085 370.728 105.781 370.08C105.485 369.424 105.337 368.664 105.337 367.8C105.337 366.944 105.485 366.188 105.781 365.532C106.085 364.876 106.513 364.368 107.065 364.008C107.617 363.64 108.281 363.456 109.057 363.456C109.833 363.456 110.497 363.64 111.049 364.008C111.601 364.368 112.025 364.876 112.321 365.532C112.625 366.188 112.777 366.944 112.777 367.8C112.777 368.664 112.625 369.424 112.321 370.08C112.025 370.728 111.601 371.236 111.049 371.604C110.497 371.964 109.833 372.144 109.057 372.144ZM109.057 370.764C109.689 370.764 110.205 370.5 110.605 369.972C111.005 369.444 111.205 368.72 111.205 367.8C111.205 366.88 111.005 366.156 110.605 365.628C110.205 365.1 109.689 364.836 109.057 364.836C108.417 364.836 107.897 365.1 107.497 365.628C107.105 366.156 106.909 366.88 106.909 367.8C106.909 368.72 107.105 369.444 107.497 369.972C107.897 370.5 108.417 370.764 109.057 370.764ZM115.044 372V365.352L113.664 365.676V364.5L115.692 363.6H116.64V372H115.044ZM121.233 372.144C120.657 372.144 120.137 372.044 119.673 371.844C119.209 371.636 118.837 371.344 118.557 370.968C118.285 370.592 118.149 370.156 118.149 369.66C118.149 369.148 118.281 368.7 118.545 368.316C118.817 367.932 119.173 367.656 119.613 367.488C119.229 367.32 118.925 367.08 118.701 366.768C118.477 366.448 118.365 366.092 118.365 365.7C118.365 365.3 118.473 364.932 118.689 364.596C118.905 364.252 119.225 363.976 119.649 363.768C120.081 363.56 120.609 363.456 121.233 363.456C121.857 363.456 122.381 363.56 122.805 363.768C123.229 363.976 123.549 364.252 123.765 364.596C123.981 364.932 124.089 365.3 124.089 365.7C124.089 366.084 123.973 366.44 123.741 366.768C123.517 367.088 123.217 367.328 122.841 367.488C123.289 367.656 123.645 367.932 123.909 368.316C124.173 368.7 124.305 369.148 124.305 369.66C124.305 370.156 124.169 370.592 123.897 370.968C123.625 371.344 123.253 371.636 122.781 371.844C122.317 372.044 121.801 372.144 121.233 372.144ZM121.233 367.032C121.649 367.032 121.977 366.924 122.217 366.708C122.457 366.492 122.577 366.216 122.577 365.88C122.577 365.512 122.457 365.224 122.217 365.016C121.985 364.808 121.657 364.704 121.233 364.704C120.801 364.704 120.469 364.808 120.237 365.016C120.005 365.224 119.889 365.512 119.889 365.88C119.889 366.224 120.005 366.504 120.237 366.72C120.477 366.928 120.809 367.032 121.233 367.032ZM121.233 370.86C121.745 370.86 122.133 370.736 122.397 370.488C122.661 370.232 122.793 369.912 122.793 369.528C122.793 369.104 122.653 368.772 122.373 368.532C122.101 368.292 121.721 368.172 121.233 368.172C120.745 368.172 120.357 368.292 120.069 368.532C119.789 368.772 119.649 369.104 119.649 369.528C119.649 369.912 119.781 370.232 120.045 370.488C120.317 370.736 120.713 370.86 121.233 370.86ZM126.44 372.084C126.16 372.084 125.928 371.996 125.744 371.82C125.568 371.644 125.48 371.432 125.48 371.184C125.48 370.928 125.568 370.712 125.744 370.536C125.928 370.36 126.16 370.272 126.44 370.272C126.72 370.272 126.948 370.36 127.124 370.536C127.308 370.712 127.4 370.928 127.4 371.184C127.4 371.432 127.308 371.644 127.124 371.82C126.948 371.996 126.72 372.084 126.44 372.084ZM129.236 372V365.352L127.856 365.676V364.5L129.884 363.6H130.832V372H129.236Z" fill="#6D7D93"/>
<path d="M346.612 372V370.884C347.124 370.46 347.62 370.04 348.1 369.624C348.588 369.208 349.02 368.796 349.396 368.388C349.78 367.98 350.084 367.584 350.308 367.2C350.54 366.808 350.656 366.428 350.656 366.06C350.656 365.716 350.56 365.412 350.368 365.148C350.184 364.884 349.876 364.752 349.444 364.752C349.004 364.752 348.672 364.896 348.448 365.184C348.224 365.472 348.112 365.82 348.112 366.228H346.624C346.64 365.612 346.776 365.1 347.032 364.692C347.288 364.276 347.628 363.968 348.052 363.768C348.476 363.56 348.952 363.456 349.48 363.456C350.336 363.456 351 363.692 351.472 364.164C351.952 364.628 352.192 365.232 352.192 365.976C352.192 366.44 352.084 366.892 351.868 367.332C351.66 367.772 351.384 368.196 351.04 368.604C350.696 369.012 350.324 369.396 349.924 369.756C349.524 370.108 349.136 370.436 348.76 370.74H352.396V372H346.612ZM357.057 372.144C356.281 372.144 355.617 371.964 355.065 371.604C354.513 371.236 354.085 370.728 353.781 370.08C353.485 369.424 353.337 368.664 353.337 367.8C353.337 366.944 353.485 366.188 353.781 365.532C354.085 364.876 354.513 364.368 355.065 364.008C355.617 363.64 356.281 363.456 357.057 363.456C357.833 363.456 358.497 363.64 359.049 364.008C359.601 364.368 360.025 364.876 360.321 365.532C360.625 366.188 360.777 366.944 360.777 367.8C360.777 368.664 360.625 369.424 360.321 370.08C360.025 370.728 359.601 371.236 359.049 371.604C358.497 371.964 357.833 372.144 357.057 372.144ZM357.057 370.764C357.689 370.764 358.205 370.5 358.605 369.972C359.005 369.444 359.205 368.72 359.205 367.8C359.205 366.88 359.005 366.156 358.605 365.628C358.205 365.1 357.689 364.836 357.057 364.836C356.417 364.836 355.897 365.1 355.497 365.628C355.105 366.156 354.909 366.88 354.909 367.8C354.909 368.72 355.105 369.444 355.497 369.972C355.897 370.5 356.417 370.764 357.057 370.764ZM363.044 372V365.352L361.664 365.676V364.5L363.692 363.6H364.64V372H363.044ZM369.233 372.144C368.657 372.144 368.137 372.044 367.673 371.844C367.209 371.636 366.837 371.344 366.557 370.968C366.285 370.592 366.149 370.156 366.149 369.66C366.149 369.148 366.281 368.7 366.545 368.316C366.817 367.932 367.173 367.656 367.613 367.488C367.229 367.32 366.925 367.08 366.701 366.768C366.477 366.448 366.365 366.092 366.365 365.7C366.365 365.3 366.473 364.932 366.689 364.596C366.905 364.252 367.225 363.976 367.649 363.768C368.081 363.56 368.609 363.456 369.233 363.456C369.857 363.456 370.381 363.56 370.805 363.768C371.229 363.976 371.549 364.252 371.765 364.596C371.981 364.932 372.089 365.3 372.089 365.7C372.089 366.084 371.973 366.44 371.741 366.768C371.517 367.088 371.217 367.328 370.841 367.488C371.289 367.656 371.645 367.932 371.909 368.316C372.173 368.7 372.305 369.148 372.305 369.66C372.305 370.156 372.169 370.592 371.897 370.968C371.625 371.344 371.253 371.636 370.781 371.844C370.317 372.044 369.801 372.144 369.233 372.144ZM369.233 367.032C369.649 367.032 369.977 366.924 370.217 366.708C370.457 366.492 370.577 366.216 370.577 365.88C370.577 365.512 370.457 365.224 370.217 365.016C369.985 364.808 369.657 364.704 369.233 364.704C368.801 364.704 368.469 364.808 368.237 365.016C368.005 365.224 367.889 365.512 367.889 365.88C367.889 366.224 368.005 366.504 368.237 366.72C368.477 366.928 368.809 367.032 369.233 367.032ZM369.233 370.86C369.745 370.86 370.133 370.736 370.397 370.488C370.661 370.232 370.793 369.912 370.793 369.528C370.793 369.104 370.653 368.772 370.373 368.532C370.101 368.292 369.721 368.172 369.233 368.172C368.745 368.172 368.357 368.292 368.069 368.532C367.789 368.772 367.649 369.104 367.649 369.528C367.649 369.912 367.781 370.232 368.045 370.488C368.317 370.736 368.713 370.86 369.233 370.86ZM374.44 372.084C374.16 372.084 373.928 371.996 373.744 371.82C373.568 371.644 373.48 371.432 373.48 371.184C373.48 370.928 373.568 370.712 373.744 370.536C373.928 370.36 374.16 370.272 374.44 370.272C374.72 370.272 374.948 370.36 375.124 370.536C375.308 370.712 375.4 370.928 375.4 371.184C375.4 371.432 375.308 371.644 375.124 371.82C374.948 371.996 374.72 372.084 374.44 372.084ZM376.495 372V370.884C377.007 370.46 377.503 370.04 377.983 369.624C378.471 369.208 378.903 368.796 379.279 368.388C379.663 367.98 379.967 367.584 380.191 367.2C380.423 366.808 380.539 366.428 380.539 366.06C380.539 365.716 380.443 365.412 380.251 365.148C380.067 364.884 379.759 364.752 379.327 364.752C378.887 364.752 378.555 364.896 378.331 365.184C378.107 365.472 377.995 365.82 377.995 366.228H376.507C376.523 365.612 376.659 365.1 376.915 364.692C377.171 364.276 377.511 363.968 377.935 363.768C378.359 363.56 378.835 363.456 379.363 363.456C380.219 363.456 380.883 363.692 381.355 364.164C381.835 364.628 382.075 365.232 382.075 365.976C382.075 366.44 381.967 366.892 381.751 367.332C381.543 367.772 381.267 368.196 380.923 368.604C380.579 369.012 380.207 369.396 379.807 369.756C379.407 370.108 379.019 370.436 378.643 370.74H382.279V372H376.495Z" fill="#6D7D93"/>
<path d="M597.612 372V370.884C598.124 370.46 598.62 370.04 599.1 369.624C599.588 369.208 600.02 368.796 600.396 368.388C600.78 367.98 601.084 367.584 601.308 367.2C601.54 366.808 601.656 366.428 601.656 366.06C601.656 365.716 601.56 365.412 601.368 365.148C601.184 364.884 600.876 364.752 600.444 364.752C600.004 364.752 599.672 364.896 599.448 365.184C599.224 365.472 599.112 365.82 599.112 366.228H597.624C597.64 365.612 597.776 365.1 598.032 364.692C598.288 364.276 598.628 363.968 599.052 363.768C599.476 363.56 599.952 363.456 600.48 363.456C601.336 363.456 602 363.692 602.472 364.164C602.952 364.628 603.192 365.232 603.192 365.976C603.192 366.44 603.084 366.892 602.868 367.332C602.66 367.772 602.384 368.196 602.04 368.604C601.696 369.012 601.324 369.396 600.924 369.756C600.524 370.108 600.136 370.436 599.76 370.74H603.396V372H597.612ZM608.057 372.144C607.281 372.144 606.617 371.964 606.065 371.604C605.513 371.236 605.085 370.728 604.781 370.08C604.485 369.424 604.337 368.664 604.337 367.8C604.337 366.944 604.485 366.188 604.781 365.532C605.085 364.876 605.513 364.368 606.065 364.008C606.617 363.64 607.281 363.456 608.057 363.456C608.833 363.456 609.497 363.64 610.049 364.008C610.601 364.368 611.025 364.876 611.321 365.532C611.625 366.188 611.777 366.944 611.777 367.8C611.777 368.664 611.625 369.424 611.321 370.08C611.025 370.728 610.601 371.236 610.049 371.604C609.497 371.964 608.833 372.144 608.057 372.144ZM608.057 370.764C608.689 370.764 609.205 370.5 609.605 369.972C610.005 369.444 610.205 368.72 610.205 367.8C610.205 366.88 610.005 366.156 609.605 365.628C609.205 365.1 608.689 364.836 608.057 364.836C607.417 364.836 606.897 365.1 606.497 365.628C606.105 366.156 605.909 366.88 605.909 367.8C605.909 368.72 606.105 369.444 606.497 369.972C606.897 370.5 607.417 370.764 608.057 370.764ZM614.044 372V365.352L612.664 365.676V364.5L614.692 363.6H615.64V372H614.044ZM620.137 372.144C619.553 372.144 619.061 372.032 618.661 371.808C618.261 371.576 617.949 371.276 617.725 370.908C617.501 370.54 617.369 370.144 617.329 369.72H618.757C618.821 370.088 618.973 370.372 619.213 370.572C619.461 370.772 619.773 370.872 620.149 370.872C620.685 370.872 621.117 370.628 621.445 370.14C621.773 369.644 621.949 368.892 621.973 367.884C621.781 368.212 621.489 368.484 621.097 368.7C620.713 368.916 620.289 369.024 619.825 369.024C619.361 369.024 618.925 368.912 618.517 368.688C618.109 368.464 617.777 368.148 617.521 367.74C617.265 367.332 617.137 366.852 617.137 366.3C617.137 365.796 617.261 365.328 617.509 364.896C617.757 364.464 618.101 364.116 618.541 363.852C618.981 363.588 619.497 363.456 620.089 363.456C620.721 363.456 621.253 363.572 621.685 363.804C622.117 364.036 622.461 364.348 622.717 364.74C622.981 365.132 623.169 365.568 623.281 366.048C623.401 366.528 623.461 367.02 623.461 367.524C623.461 368.46 623.329 369.276 623.065 369.972C622.809 370.66 622.429 371.196 621.925 371.58C621.429 371.956 620.833 372.144 620.137 372.144ZM620.185 367.728C620.481 367.728 620.749 367.664 620.989 367.536C621.229 367.4 621.417 367.224 621.553 367.008C621.689 366.784 621.757 366.536 621.757 366.264C621.757 365.832 621.605 365.476 621.301 365.196C621.005 364.916 620.629 364.776 620.173 364.776C619.725 364.776 619.353 364.916 619.057 365.196C618.761 365.468 618.613 365.816 618.613 366.24C618.613 366.688 618.761 367.048 619.057 367.32C619.353 367.592 619.729 367.728 620.185 367.728ZM625.135 372.084C624.855 372.084 624.623 371.996 624.439 371.82C624.263 371.644 624.175 371.432 624.175 371.184C624.175 370.928 624.263 370.712 624.439 370.536C624.623 370.36 624.855 370.272 625.135 370.272C625.415 370.272 625.643 370.36 625.819 370.536C626.003 370.712 626.095 370.928 626.095 371.184C626.095 371.432 626.003 371.644 625.819 371.82C625.643 371.996 625.415 372.084 625.135 372.084ZM627.931 372V365.352L626.551 365.676V364.5L628.579 363.6H629.527V372H627.931Z" fill="#6D7D93"/>
<path d="M845.612 372V370.884C846.124 370.46 846.62 370.04 847.1 369.624C847.588 369.208 848.02 368.796 848.396 368.388C848.78 367.98 849.084 367.584 849.308 367.2C849.54 366.808 849.656 366.428 849.656 366.06C849.656 365.716 849.56 365.412 849.368 365.148C849.184 364.884 848.876 364.752 848.444 364.752C848.004 364.752 847.672 364.896 847.448 365.184C847.224 365.472 847.112 365.82 847.112 366.228H845.624C845.64 365.612 845.776 365.1 846.032 364.692C846.288 364.276 846.628 363.968 847.052 363.768C847.476 363.56 847.952 363.456 848.48 363.456C849.336 363.456 850 363.692 850.472 364.164C850.952 364.628 851.192 365.232 851.192 365.976C851.192 366.44 851.084 366.892 850.868 367.332C850.66 367.772 850.384 368.196 850.04 368.604C849.696 369.012 849.324 369.396 848.924 369.756C848.524 370.108 848.136 370.436 847.76 370.74H851.396V372H845.612ZM856.057 372.144C855.281 372.144 854.617 371.964 854.065 371.604C853.513 371.236 853.085 370.728 852.781 370.08C852.485 369.424 852.337 368.664 852.337 367.8C852.337 366.944 852.485 366.188 852.781 365.532C853.085 364.876 853.513 364.368 854.065 364.008C854.617 363.64 855.281 363.456 856.057 363.456C856.833 363.456 857.497 363.64 858.049 364.008C858.601 364.368 859.025 364.876 859.321 365.532C859.625 366.188 859.777 366.944 859.777 367.8C859.777 368.664 859.625 369.424 859.321 370.08C859.025 370.728 858.601 371.236 858.049 371.604C857.497 371.964 856.833 372.144 856.057 372.144ZM856.057 370.764C856.689 370.764 857.205 370.5 857.605 369.972C858.005 369.444 858.205 368.72 858.205 367.8C858.205 366.88 858.005 366.156 857.605 365.628C857.205 365.1 856.689 364.836 856.057 364.836C855.417 364.836 854.897 365.1 854.497 365.628C854.105 366.156 853.909 366.88 853.909 367.8C853.909 368.72 854.105 369.444 854.497 369.972C854.897 370.5 855.417 370.764 856.057 370.764ZM862.044 372V365.352L860.664 365.676V364.5L862.692 363.6H863.64V372H862.044ZM868.137 372.144C867.553 372.144 867.061 372.032 866.661 371.808C866.261 371.576 865.949 371.276 865.725 370.908C865.501 370.54 865.369 370.144 865.329 369.72H866.757C866.821 370.088 866.973 370.372 867.213 370.572C867.461 370.772 867.773 370.872 868.149 370.872C868.685 370.872 869.117 370.628 869.445 370.14C869.773 369.644 869.949 368.892 869.973 367.884C869.781 368.212 869.489 368.484 869.097 368.7C868.713 368.916 868.289 369.024 867.825 369.024C867.361 369.024 866.925 368.912 866.517 368.688C866.109 368.464 865.777 368.148 865.521 367.74C865.265 367.332 865.137 366.852 865.137 366.3C865.137 365.796 865.261 365.328 865.509 364.896C865.757 364.464 866.101 364.116 866.541 363.852C866.981 363.588 867.497 363.456 868.089 363.456C868.721 363.456 869.253 363.572 869.685 363.804C870.117 364.036 870.461 364.348 870.717 364.74C870.981 365.132 871.169 365.568 871.281 366.048C871.401 366.528 871.461 367.02 871.461 367.524C871.461 368.46 871.329 369.276 871.065 369.972C870.809 370.66 870.429 371.196 869.925 371.58C869.429 371.956 868.833 372.144 868.137 372.144ZM868.185 367.728C868.481 367.728 868.749 367.664 868.989 367.536C869.229 367.4 869.417 367.224 869.553 367.008C869.689 366.784 869.757 366.536 869.757 366.264C869.757 365.832 869.605 365.476 869.301 365.196C869.005 364.916 868.629 364.776 868.173 364.776C867.725 364.776 867.353 364.916 867.057 365.196C866.761 365.468 866.613 365.816 866.613 366.24C866.613 366.688 866.761 367.048 867.057 367.32C867.353 367.592 867.729 367.728 868.185 367.728ZM873.135 372.084C872.855 372.084 872.623 371.996 872.439 371.82C872.263 371.644 872.175 371.432 872.175 371.184C872.175 370.928 872.263 370.712 872.439 370.536C872.623 370.36 872.855 370.272 873.135 370.272C873.415 370.272 873.643 370.36 873.819 370.536C874.003 370.712 874.095 370.928 874.095 371.184C874.095 371.432 874.003 371.644 873.819 371.82C873.643 371.996 873.415 372.084 873.135 372.084ZM875.19 372V370.884C875.702 370.46 876.198 370.04 876.678 369.624C877.166 369.208 877.598 368.796 877.974 368.388C878.358 367.98 878.662 367.584 878.886 367.2C879.118 366.808 879.234 366.428 879.234 366.06C879.234 365.716 879.138 365.412 878.946 365.148C878.762 364.884 878.454 364.752 878.022 364.752C877.582 364.752 877.25 364.896 877.026 365.184C876.802 365.472 876.69 365.82 876.69 366.228H875.202C875.218 365.612 875.354 365.1 875.61 364.692C875.866 364.276 876.206 363.968 876.63 363.768C877.054 363.56 877.53 363.456 878.058 363.456C878.914 363.456 879.578 363.692 880.05 364.164C880.53 364.628 880.77 365.232 880.77 365.976C880.77 366.44 880.662 366.892 880.446 367.332C880.238 367.772 879.962 368.196 879.618 368.604C879.274 369.012 878.902 369.396 878.502 369.756C878.102 370.108 877.714 370.436 877.338 370.74H880.974V372H875.19Z" fill="#6D7D93"/>
<path d="M37.728 47V40.352L36.348 40.676V39.5L38.376 38.6H39.324V47H37.728ZM44.3967 47.144C43.6207 47.144 42.9567 46.964 42.4047 46.604C41.8527 46.236 41.4247 45.728 41.1207 45.08C40.8247 44.424 40.6767 43.664 40.6767 42.8C40.6767 41.944 40.8247 41.188 41.1207 40.532C41.4247 39.876 41.8527 39.368 42.4047 39.008C42.9567 38.64 43.6207 38.456 44.3967 38.456C45.1727 38.456 45.8367 38.64 46.3887 39.008C46.9407 39.368 47.3647 39.876 47.6607 40.532C47.9647 41.188 48.1167 41.944 48.1167 42.8C48.1167 43.664 47.9647 44.424 47.6607 45.08C47.3647 45.728 46.9407 46.236 46.3887 46.604C45.8367 46.964 45.1727 47.144 44.3967 47.144ZM44.3967 45.764C45.0287 45.764 45.5447 45.5 45.9447 44.972C46.3447 44.444 46.5447 43.72 46.5447 42.8C46.5447 41.88 46.3447 41.156 45.9447 40.628C45.5447 40.1 45.0287 39.836 44.3967 39.836C43.7567 39.836 43.2367 40.1 42.8367 40.628C42.4447 41.156 42.2487 41.88 42.2487 42.8C42.2487 43.72 42.4447 44.444 42.8367 44.972C43.2367 45.5 43.7567 45.764 44.3967 45.764Z" fill="#6D7D93"/>
<path d="M39.78 106.144C39.204 106.144 38.684 106.044 38.22 105.844C37.756 105.636 37.384 105.344 37.104 104.968C36.832 104.592 36.696 104.156 36.696 103.66C36.696 103.148 36.828 102.7 37.092 102.316C37.364 101.932 37.72 101.656 38.16 101.488C37.776 101.32 37.472 101.08 37.248 100.768C37.024 100.448 36.912 100.092 36.912 99.7C36.912 99.3 37.02 98.932 37.236 98.596C37.452 98.252 37.772 97.976 38.196 97.768C38.628 97.56 39.156 97.456 39.78 97.456C40.404 97.456 40.928 97.56 41.352 97.768C41.776 97.976 42.096 98.252 42.312 98.596C42.528 98.932 42.636 99.3 42.636 99.7C42.636 100.084 42.52 100.44 42.288 100.768C42.064 101.088 41.764 101.328 41.388 101.488C41.836 101.656 42.192 101.932 42.456 102.316C42.72 102.7 42.852 103.148 42.852 103.66C42.852 104.156 42.716 104.592 42.444 104.968C42.172 105.344 41.8 105.636 41.328 105.844C40.864 106.044 40.348 106.144 39.78 106.144ZM39.78 101.032C40.196 101.032 40.524 100.924 40.764 100.708C41.004 100.492 41.124 100.216 41.124 99.88C41.124 99.512 41.004 99.224 40.764 99.016C40.532 98.808 40.204 98.704 39.78 98.704C39.348 98.704 39.016 98.808 38.784 99.016C38.552 99.224 38.436 99.512 38.436 99.88C38.436 100.224 38.552 100.504 38.784 100.72C39.024 100.928 39.356 101.032 39.78 101.032ZM39.78 104.86C40.292 104.86 40.68 104.736 40.944 104.488C41.208 104.232 41.34 103.912 41.34 103.528C41.34 103.104 41.2 102.772 40.92 102.532C40.648 102.292 40.268 102.172 39.78 102.172C39.292 102.172 38.904 102.292 38.616 102.532C38.336 102.772 38.196 103.104 38.196 103.528C38.196 103.912 38.328 104.232 38.592 104.488C38.864 104.736 39.26 104.86 39.78 104.86Z" fill="#6D7D93"/>
<path d="M39.972 165.144C39.34 165.144 38.808 165.028 38.376 164.796C37.944 164.564 37.596 164.252 37.332 163.86C37.068 163.468 36.876 163.032 36.756 162.552C36.644 162.072 36.588 161.58 36.588 161.076C36.588 160.14 36.72 159.328 36.984 158.64C37.248 157.944 37.628 157.408 38.124 157.032C38.62 156.648 39.22 156.456 39.924 156.456C40.5 156.456 40.988 156.572 41.388 156.804C41.796 157.028 42.112 157.324 42.336 157.692C42.56 158.06 42.692 158.456 42.732 158.88H41.304C41.232 158.512 41.076 158.228 40.836 158.028C40.596 157.828 40.288 157.728 39.912 157.728C39.376 157.728 38.944 157.976 38.616 158.472C38.288 158.96 38.112 159.708 38.088 160.716C38.28 160.388 38.568 160.116 38.952 159.9C39.336 159.684 39.764 159.576 40.236 159.576C40.7 159.576 41.136 159.688 41.544 159.912C41.952 160.136 42.28 160.452 42.528 160.86C42.784 161.268 42.912 161.748 42.912 162.3C42.912 162.804 42.788 163.272 42.54 163.704C42.3 164.136 41.956 164.484 41.508 164.748C41.068 165.012 40.556 165.144 39.972 165.144ZM39.888 163.824C40.336 163.824 40.704 163.688 40.992 163.416C41.288 163.136 41.436 162.784 41.436 162.36C41.436 161.912 41.288 161.552 40.992 161.28C40.696 161.008 40.32 160.872 39.864 160.872C39.568 160.872 39.3 160.94 39.06 161.076C38.828 161.204 38.644 161.38 38.508 161.604C38.372 161.82 38.304 162.064 38.304 162.336C38.304 162.768 38.452 163.124 38.748 163.404C39.052 163.684 39.432 163.824 39.888 163.824Z" fill="#6D7D93"/>
<path d="M40.656 224V222.44H36.516V221.216L40.452 215.6H42.192V221.108H43.296V222.44H42.192V224H40.656ZM38.16 221.108H40.752V217.292L38.16 221.108Z" fill="#6D7D93"/>
<path d="M36.612 283V281.884C37.124 281.46 37.62 281.04 38.1 280.624C38.588 280.208 39.02 279.796 39.396 279.388C39.78 278.98 40.084 278.584 40.308 278.2C40.54 277.808 40.656 277.428 40.656 277.06C40.656 276.716 40.56 276.412 40.368 276.148C40.184 275.884 39.876 275.752 39.444 275.752C39.004 275.752 38.672 275.896 38.448 276.184C38.224 276.472 38.112 276.82 38.112 277.228H36.624C36.64 276.612 36.776 276.1 37.032 275.692C37.288 275.276 37.628 274.968 38.052 274.768C38.476 274.56 38.952 274.456 39.48 274.456C40.336 274.456 41 274.692 41.472 275.164C41.952 275.628 42.192 276.232 42.192 276.976C42.192 277.44 42.084 277.892 41.868 278.332C41.66 278.772 41.384 279.196 41.04 279.604C40.696 280.012 40.324 280.396 39.924 280.756C39.524 281.108 39.136 281.436 38.76 281.74H42.396V283H36.612Z" fill="#6D7D93"/>
<path d="M40.26 342.144C39.484 342.144 38.82 341.964 38.268 341.604C37.716 341.236 37.288 340.728 36.984 340.08C36.688 339.424 36.54 338.664 36.54 337.8C36.54 336.944 36.688 336.188 36.984 335.532C37.288 334.876 37.716 334.368 38.268 334.008C38.82 333.64 39.484 333.456 40.26 333.456C41.036 333.456 41.7 333.64 42.252 334.008C42.804 334.368 43.228 334.876 43.524 335.532C43.828 336.188 43.98 336.944 43.98 337.8C43.98 338.664 43.828 339.424 43.524 340.08C43.228 340.728 42.804 341.236 42.252 341.604C41.7 341.964 41.036 342.144 40.26 342.144ZM40.26 340.764C40.892 340.764 41.408 340.5 41.808 339.972C42.208 339.444 42.408 338.72 42.408 337.8C42.408 336.88 42.208 336.156 41.808 335.628C41.408 335.1 40.892 334.836 40.26 334.836C39.62 334.836 39.1 335.1 38.7 335.628C38.308 336.156 38.112 336.88 38.112 337.8C38.112 338.72 38.308 339.444 38.7 339.972C39.1 340.5 39.62 340.764 40.26 340.764Z" fill="#6D7D93"/>
<line x1="78.25" y1="36" x2="78.25" y2="345" stroke="#6D7D93" stroke-opacity="0.5" stroke-width="0.5"/>
<line x1="79" y1="344.75" x2="879" y2="344.75" stroke="#6D7D93" stroke-opacity="0.5" stroke-width="0.5"/>
<circle cx="605" cy="92" r="10" fill="#3557C3"/>
<circle cx="605" cy="92" r="4" fill="#0D0D0D"/>
<g filter="url(#filter1_b_543_16)">
<path d="M574 29C574 27.3431 575.343 26 577 26H613C614.657 26 616 27.3431 616 29V60.0488C616 61.9144 613.766 62.872 612.415 61.5854V61.5854C612.02 61.2096 611.496 61 610.951 61H577C575.343 61 574 59.6569 574 58V29Z" fill="white" fill-opacity="0.8"/>
</g>
<path d="M585.78 53.144C585.204 53.144 584.684 53.044 584.22 52.844C583.756 52.636 583.384 52.344 583.104 51.968C582.832 51.592 582.696 51.156 582.696 50.66C582.696 50.148 582.828 49.7 583.092 49.316C583.364 48.932 583.72 48.656 584.16 48.488C583.776 48.32 583.472 48.08 583.248 47.768C583.024 47.448 582.912 47.092 582.912 46.7C582.912 46.3 583.02 45.932 583.236 45.596C583.452 45.252 583.772 44.976 584.196 44.768C584.628 44.56 585.156 44.456 585.78 44.456C586.404 44.456 586.928 44.56 587.352 44.768C587.776 44.976 588.096 45.252 588.312 45.596C588.528 45.932 588.636 46.3 588.636 46.7C588.636 47.084 588.52 47.44 588.288 47.768C588.064 48.088 587.764 48.328 587.388 48.488C587.836 48.656 588.192 48.932 588.456 49.316C588.72 49.7 588.852 50.148 588.852 50.66C588.852 51.156 588.716 51.592 588.444 51.968C588.172 52.344 587.8 52.636 587.328 52.844C586.864 53.044 586.348 53.144 585.78 53.144ZM585.78 48.032C586.196 48.032 586.524 47.924 586.764 47.708C587.004 47.492 587.124 47.216 587.124 46.88C587.124 46.512 587.004 46.224 586.764 46.016C586.532 45.808 586.204 45.704 585.78 45.704C585.348 45.704 585.016 45.808 584.784 46.016C584.552 46.224 584.436 46.512 584.436 46.88C584.436 47.224 584.552 47.504 584.784 47.72C585.024 47.928 585.356 48.032 585.78 48.032ZM585.78 51.86C586.292 51.86 586.68 51.736 586.944 51.488C587.208 51.232 587.34 50.912 587.34 50.528C587.34 50.104 587.2 49.772 586.92 49.532C586.648 49.292 586.268 49.172 585.78 49.172C585.292 49.172 584.904 49.292 584.616 49.532C584.336 49.772 584.196 50.104 584.196 50.528C584.196 50.912 584.328 51.232 584.592 51.488C584.864 51.736 585.26 51.86 585.78 51.86ZM590.987 53.084C590.707 53.084 590.475 52.996 590.291 52.82C590.115 52.644 590.027 52.432 590.027 52.184C590.027 51.928 590.115 51.712 590.291 51.536C590.475 51.36 590.707 51.272 590.987 51.272C591.267 51.272 591.495 51.36 591.671 51.536C591.855 51.712 591.947 51.928 591.947 52.184C591.947 52.432 591.855 52.644 591.671 52.82C591.495 52.996 591.267 53.084 590.987 53.084ZM596.258 53.144C595.642 53.144 595.11 53.036 594.662 52.82C594.222 52.604 593.874 52.308 593.618 51.932C593.37 51.548 593.226 51.116 593.186 50.636H594.686C594.758 50.98 594.934 51.268 595.214 51.5C595.494 51.724 595.842 51.836 596.258 51.836C596.706 51.836 597.07 51.672 597.35 51.344C597.638 51.016 597.782 50.608 597.782 50.12C597.782 49.616 597.638 49.216 597.35 48.92C597.07 48.624 596.714 48.476 596.282 48.476C595.922 48.476 595.61 48.564 595.346 48.74C595.082 48.916 594.894 49.136 594.782 49.4H593.306L594.026 44.6H598.682V45.944H595.178L594.794 47.888C594.97 47.696 595.21 47.54 595.514 47.42C595.818 47.292 596.158 47.228 596.534 47.228C597.134 47.228 597.634 47.364 598.034 47.636C598.434 47.9 598.738 48.252 598.946 48.692C599.154 49.124 599.258 49.596 599.258 50.108C599.258 50.692 599.13 51.212 598.874 51.668C598.626 52.124 598.274 52.484 597.818 52.748C597.37 53.012 596.85 53.144 596.258 53.144Z" fill="#0D0D0D"/>
<path opacity="0.8" d="M583.255 36V35.535C583.468 35.3583 583.675 35.1833 583.875 35.01C584.078 34.8367 584.258 34.665 584.415 34.495C584.575 34.325 584.702 34.16 584.795 34C584.892 33.8367 584.94 33.6783 584.94 33.525C584.94 33.3817 584.9 33.255 584.82 33.145C584.743 33.035 584.615 32.98 584.435 32.98C584.252 32.98 584.113 33.04 584.02 33.16C583.927 33.28 583.88 33.425 583.88 33.595H583.26C583.267 33.3383 583.323 33.125 583.43 32.955C583.537 32.7817 583.678 32.6533 583.855 32.57C584.032 32.4833 584.23 32.44 584.45 32.44C584.807 32.44 585.083 32.5383 585.28 32.735C585.48 32.9283 585.58 33.18 585.58 33.49C585.58 33.6833 585.535 33.8717 585.445 34.055C585.358 34.2383 585.243 34.415 585.1 34.585C584.957 34.755 584.802 34.915 584.635 35.065C584.468 35.2117 584.307 35.3483 584.15 35.475H585.665V36H583.255ZM587.607 36.06C587.284 36.06 587.007 35.985 586.777 35.835C586.547 35.6817 586.369 35.47 586.242 35.2C586.119 34.9267 586.057 34.61 586.057 34.25C586.057 33.8933 586.119 33.5783 586.242 33.305C586.369 33.0317 586.547 32.82 586.777 32.67C587.007 32.5167 587.284 32.44 587.607 32.44C587.93 32.44 588.207 32.5167 588.437 32.67C588.667 32.82 588.844 33.0317 588.967 33.305C589.094 33.5783 589.157 33.8933 589.157 34.25C589.157 34.61 589.094 34.9267 588.967 35.2C588.844 35.47 588.667 35.6817 588.437 35.835C588.207 35.985 587.93 36.06 587.607 36.06ZM587.607 35.485C587.87 35.485 588.085 35.375 588.252 35.155C588.419 34.935 588.502 34.6333 588.502 34.25C588.502 33.8667 588.419 33.565 588.252 33.345C588.085 33.125 587.87 33.015 587.607 33.015C587.34 33.015 587.124 33.125 586.957 33.345C586.794 33.565 586.712 33.8667 586.712 34.25C586.712 34.6333 586.794 34.935 586.957 35.155C587.124 35.375 587.34 35.485 587.607 35.485ZM590.102 36V33.23L589.527 33.365V32.875L590.372 32.5H590.767V36H590.102ZM592.64 36.06C592.397 36.06 592.192 36.0133 592.025 35.92C591.859 35.8233 591.729 35.6983 591.635 35.545C591.542 35.3917 591.487 35.2267 591.47 35.05H592.065C592.092 35.2033 592.155 35.3217 592.255 35.405C592.359 35.4883 592.489 35.53 592.645 35.53C592.869 35.53 593.049 35.4283 593.185 35.225C593.322 35.0183 593.395 34.705 593.405 34.285C593.325 34.4217 593.204 34.535 593.04 34.625C592.88 34.715 592.704 34.76 592.51 34.76C592.317 34.76 592.135 34.7133 591.965 34.62C591.795 34.5267 591.657 34.395 591.55 34.225C591.444 34.055 591.39 33.855 591.39 33.625C591.39 33.415 591.442 33.22 591.545 33.04C591.649 32.86 591.792 32.715 591.975 32.605C592.159 32.495 592.374 32.44 592.62 32.44C592.884 32.44 593.105 32.4883 593.285 32.585C593.465 32.6817 593.609 32.8117 593.715 32.975C593.825 33.1383 593.904 33.32 593.95 33.52C594 33.72 594.025 33.925 594.025 34.135C594.025 34.525 593.97 34.865 593.86 35.155C593.754 35.4417 593.595 35.665 593.385 35.825C593.179 35.9817 592.93 36.06 592.64 36.06ZM592.66 34.22C592.784 34.22 592.895 34.1933 592.995 34.14C593.095 34.0833 593.174 34.01 593.23 33.92C593.287 33.8267 593.315 33.7233 593.315 33.61C593.315 33.43 593.252 33.2817 593.125 33.165C593.002 33.0483 592.845 32.99 592.655 32.99C592.469 32.99 592.314 33.0483 592.19 33.165C592.067 33.2783 592.005 33.4233 592.005 33.6C592.005 33.7867 592.067 33.9367 592.19 34.05C592.314 34.1633 592.47 34.22 592.66 34.22ZM594.723 36.035C594.606 36.035 594.51 35.9983 594.433 35.925C594.36 35.8517 594.323 35.7633 594.323 35.66C594.323 35.5533 594.36 35.4633 594.433 35.39C594.51 35.3167 594.606 35.28 594.723 35.28C594.84 35.28 594.935 35.3167 595.008 35.39C595.085 35.4633 595.123 35.5533 595.123 35.66C595.123 35.7633 595.085 35.8517 595.008 35.925C594.935 35.9983 594.84 36.035 594.723 36.035ZM595.888 36V33.23L595.313 33.365V32.875L596.158 32.5H596.553V36H595.888Z" fill="#0D0D0D"/>
<defs>
<filter id="filter0_d_543_16" x="0" y="0" width="940" height="420" filterUnits="userSpaceOnUse" color-interpolation-filters="sRGB">
<feFlood flood-opacity="0" result="BackgroundImageFix"/>
<feColorMatrix in="SourceAlpha" type="matrix" values="0 0 0 0 0 0 0 0 0 0 0 0 0 0 0 0 0 0 127 0" result="hardAlpha"/>
<feMorphology radius="10" operator="erode" in="SourceAlpha" result="effect1_dropShadow_543_16"/>
<feOffset dx="4" dy="4"/>
<feGaussianBlur stdDeviation="10"/>
<feComposite in2="hardAlpha" operator="out"/>
<feColorMatrix type="matrix" values="0 0 0 0 0 0 0 0 0 0 0 0 0 0 0 0 0 0 0.1 0"/>
<feBlend mode="normal" in2="BackgroundImageFix" result="effect1_dropShadow_543_16"/>
<feBlend mode="normal" in="SourceGraphic" in2="effect1_dropShadow_543_16" result="shape"/>
</filter>
<filter id="filter1_b_543_16" x="554" y="6" width="82" height="76.1749" filterUnits="userSpaceOnUse" color-interpolation-filters="sRGB">
<feFlood flood-opacity="0" result="BackgroundImageFix"/>
<feGaussianBlur in="BackgroundImageFix" stdDeviation="10"/>
<feComposite in2="SourceAlpha" operator="in" result="effect1_backgroundBlur_543_16"/>
<feBlend mode="normal" in="SourceGraphic" in2="effect1_backgroundBlur_543_16" result="shape"/>
</filter>
<linearGradient id="paint0_linear_543_16" x1="478" y1="87" x2="478" y2="344.5" gradientUnits="userSpaceOnUse">
<stop stop-color="#3450B1"/>
<stop offset="1" stop-color="#3450B1" stop-opacity="0.5"/>
</linearGradient>
<linearGradient id="paint1_linear_543_16" x1="478" y1="87" x2="478" y2="303" gradientUnits="userSpaceOnUse">
<stop stop-color="#037BCB"/>
<stop offset="1" stop-color="#18A0FB"/>
</linearGradient>
</defs>
</svg>
